<?xml version="1.0" encoding="utf-8"?>
<!DOCTYPE svg PUBLIC "-//W3C//DTD SVG 1.0//EN" "http://www.w3.org/TR/2001/REC-SVG-20010904/DTD/svg10.dtd">
<svg version="1.0" xmlns="http://www.w3.org/2000/svg" width="300px" height="300px" viewBox="0 0 300 300" preserveAspectRatio="xMidYMid meet">
 <rect width="300" height="300" rx="50" ry="50" fill="#ffffff"/>
 <g transform="translate(150,150) scale(0.8) translate(-150,-150)">
  <g fill="#000000">
   <path d="M74.27 271.99 c-0.47 -0.06 -2.05 -0.26 -3.52 -0.44 -10.43 -1.26 -21.18 -5.30 -30.38 -11.34 -20.01 -13.24 -32.46 -35.98 -32.46 -59.33 0 -3.98 0.32 -5.04 1.99 -6.30 0.85 -0.64 1.41 -0.79 3.13 -0.88 2.55 -0.15 3.87 0.35 5.01 1.85 0.76 1.03 0.82 1.32 1.05 5.24 0.70 11.78 3.90 21.88 10.05 31.49 8.26 12.98 22.21 23 37.32 26.84 14 3.54 28.15 1.93 41.22 -4.69 6.88 -3.49 10.58 -6.15 15.91 -11.37 10.66 -10.46 16.88 -23.14 18.63 -38.17 0.38 -3.28 0.44 -14.74 0.44 -88.27 l0 -84.52 0.62 -1.26 c0.41 -0.85 1.03 -1.52 1.85 -1.99 l1.26 -0.73 72.19 0 c69.70 0 72.25 0.03 73.21 0.56 1.99 1.05 2.90 3.28 2.49 6.21 -0.26 1.85 -1.64 3.52 -3.31 4.01 -0.88 0.26 -18.08 0.35 -68.99 0.35 l-67.85 0 -0.12 83.29 -0.09 83.26 -0.62 3.81 c-2.72 16.61 -8.94 29.30 -19.86 40.55 -9.52 9.81 -20.95 16.46 -34.07 19.80 -6.01 1.52 -9.70 1.96 -17.20 2.05 -3.87 0.06 -7.41 0.03 -7.91 -0.03z"/>
   <path d="M74.56 252.48 c-3.40 -0.32 -8.64 -1.49 -11.84 -2.64 -3.63 -1.29 -8.99 -4.04 -12.60 -6.45 -4.28 -2.93 -10.87 -9.49 -13.59 -13.65 -6.04 -9.11 -8.67 -17.17 -9.20 -27.92 -0.18 -3.75 -0.15 -4.07 0.47 -5.36 0.91 -1.82 2.08 -2.61 4.19 -2.75 2.29 -0.18 3.54 0.12 4.63 1.03 1.44 1.20 1.76 2.14 2.05 6.27 0.88 11.28 4.86 20.13 12.57 27.80 8.14 8.12 18.60 12.66 29.33 12.69 17.64 0.06 33.75 -11.48 40.14 -28.77 0.44 -1.23 1.11 -3.63 1.49 -5.30 l0.70 -3.08 0.09 -78.31 0.06 -78.28 5.71 0 5.71 0 0 77.34 c0 52.85 -0.09 78.28 -0.32 80.21 -3.25 29.74 -29.15 50.24 -59.59 47.17z"/>
   <path d="M74.27 233.32 c-7.15 -1.29 -13.74 -4.83 -18.63 -9.96 -6.15 -6.50 -9.35 -14.36 -9.35 -23.12 0 -2.93 0.06 -3.40 0.67 -4.25 1.23 -1.85 2.02 -2.20 4.83 -2.20 2.20 0 2.67 0.09 3.52 0.67 1.38 1 1.88 2.20 2.14 5.27 0.91 10.66 8.12 19.48 18.13 22.21 2.58 0.70 7.68 0.70 10.25 0 8.67 -2.37 15.47 -9.08 17.61 -17.37 0.56 -2.17 0.56 -3.81 0.56 -67.44 0 -35.86 0.09 -66.30 0.21 -67.62 l0.18 -2.43 5.51 0 5.54 0 0 68.23 c0 60.82 -0.06 68.50 -0.47 70.66 -1.41 7.44 -4.66 13.42 -10.11 18.54 -5.16 4.83 -11.66 8 -18.54 8.94 -3.11 0.44 -9.20 0.35 -12.04 -0.15z"/>
   <path d="M162.30 72.80 l0 -5.71 44.47 0 c29.44 0 44.88 0.12 45.76 0.32 1.61 0.35 3.11 1.73 3.52 3.19 0.64 2.34 0.21 4.98 -1.08 6.24 -1.88 1.79 1.26 1.67 -47.84 1.67 l-44.82 0 0 -5.71z"/>
   <path d="M162.30 53.32 l0 -5.57 54.52 0 c60.76 0 55.78 -0.18 57.28 2.02 0.62 0.91 0.70 1.38 0.70 3.43 0 2.84 -0.59 3.98 -2.64 5.04 l-1.29 0.64 -54.29 0 -54.29 0 0 -5.57z"/>
  </g>
  <g fill="#ffffff">
   <path d="M0 150 l0 -150 150 0 150 0 0 150 0 150 -150 0 -150 0 0 -150z m91.96 120.41 c16.17 -2.72 29.50 -9.67 40.61 -21.12 5.39 -5.54 9.11 -10.69 12.33 -17.05 3.84 -7.56 6.04 -14.36 7.53 -23.50 l0.62 -3.81 0.09 -83.26 0.12 -83.29 67.85 0 c49.95 0 68.14 -0.09 68.96 -0.32 3.98 -1.20 4.48 -6.80 0.73 -8.58 -0.91 -0.44 -7.06 -0.47 -72.28 -0.47 l-71.25 0 -1.26 0.73 c-0.82 0.47 -1.44 1.14 -1.85 1.99 l-0.62 1.26 0 84.52 c0 73.54 -0.06 84.99 -0.44 88.27 -1.76 15.03 -7.97 27.71 -18.63 38.17 -5.33 5.21 -9.02 7.88 -15.91 11.37 -13.18 6.68 -28.48 8.35 -42.98 4.69 -15.12 -3.84 -29.06 -13.86 -37.32 -26.84 -6.15 -9.61 -9.35 -19.72 -10.05 -31.49 -0.23 -3.93 -0.29 -4.22 -1.05 -5.24 -2.14 -2.78 -6.39 -2.34 -7.91 0.82 -1.41 2.99 0.29 16.17 3.22 24.79 6.53 19.34 21.30 35.33 39.96 43.33 6.24 2.70 13.04 4.57 19.19 5.30 1.46 0.18 3.05 0.38 3.52 0.44 0.50 0.09 3.66 0.09 7.03 0.03 4.51 -0.09 7.12 -0.26 9.79 -0.73z m-6.86 -18.75 c14.18 -1.35 26.51 -7.59 35.51 -18.02 7.09 -8.20 11.46 -18.28 12.66 -29.21 0.23 -1.93 0.32 -27.13 0.32 -79.34 l0 -76.46 -4.83 0 -4.83 0 -0.06 78.28 -0.09 78.31 -0.70 3.08 c-1.85 8.26 -5.83 15.50 -11.75 21.39 -6.47 6.45 -13.65 10.28 -22.65 12.07 -4.57 0.91 -11.63 0.91 -15.91 0 -8.94 -1.90 -16.08 -5.74 -22.41 -12.07 -7.71 -7.68 -11.69 -16.52 -12.57 -27.80 -0.29 -4.13 -0.62 -5.07 -2.05 -6.27 -2.34 -1.96 -5.65 -1.14 -7.06 1.73 -0.59 1.23 -0.62 1.61 -0.44 4.54 0.64 10.28 3.34 18.16 9.17 26.98 2.72 4.16 9.32 10.72 13.59 13.65 5.83 3.93 12.07 6.65 18.46 8.09 5.63 1.26 10.22 1.55 15.64 1.05z m0.32 -19.07 c14.47 -1.99 25.90 -12.98 28.65 -27.48 0.41 -2.17 0.47 -9.79 0.47 -69.79 l0 -67.35 -4.66 0 -4.63 0 -0.21 2.52 c-0.09 1.38 -0.18 31.79 -0.18 67.59 0 63.78 0 65.16 -0.56 67.35 -1.76 6.86 -6.47 12.51 -13.07 15.64 -4.07 1.93 -5.77 2.29 -10.55 2.29 -4.72 0 -6.53 -0.38 -10.28 -2.17 -7.88 -3.78 -13.10 -11.51 -13.86 -20.57 -0.35 -4.37 -1.64 -5.95 -4.78 -5.95 -1.85 0 -2.84 0.56 -3.98 2.20 -0.53 0.82 -0.64 1.35 -0.64 3.37 0 11.84 7.53 23.50 18.78 29.12 6.06 3.05 12.77 4.16 19.48 3.22z m166.96 -155.51 c0.67 -0.29 1.52 -0.94 1.96 -1.44 2.14 -2.58 0.67 -6.59 -2.70 -7.35 -0.88 -0.21 -16.03 -0.32 -44.88 -0.32 l-43.59 0 0 4.83 0 4.83 44.03 0 c42.07 0 44.06 -0.03 45.18 -0.56z m18.90 -19.72 c1.79 -0.91 2.64 -2.26 2.64 -4.16 0 -1.82 -0.94 -3.37 -2.43 -4.10 -0.94 -0.44 -5.51 -0.47 -54.67 -0.47 l-53.64 0 0 4.69 0 4.69 53.41 0 53.41 0 1.29 -0.64z"/>
  </g>
 </g>
</svg>
